inDegrees=no
num_controls=7
num_derivatives=13
num_iterations=106
num_multipliers=7
num_parameters=0
num_slacks=7
num_states=26
objective=4.851816
objective_accelerations=0.473839
objective_balance=0.021183
objective_effort=0.137171
objective_height=4.120856
objective_ligament=0.098766
solver_duration=1166.118711
status=Solve_Succeeded
success=true
DataType=double
version=3
OpenSimVersion=4.4-2022-07-23-0e9fedc
endheader
time	/jointset/ground_pelvis/pelvis_tilt/value	/jointset/ground_pelvis/pelvis_tx/value	/jointset/ground_pelvis/pelvis_ty/value	/jointset/hip_l/hip_flexion_l/value	/jointset/hip_l/hip_adduction_l/value	/jointset/hip_l/hip_rotation_l/value	/jointset/back/lumbar_extension/value	/jointset/patellofemoral_l/patellar_flexion_l/value	/jointset/knee_l/knee_flexion_l/value	/jointset/knee_l/knee_adduction_l/value	/jointset/knee_l/knee_rotation_l/value	/jointset/ankle_l/ankle_angle_l/value	/jointset/subtalar_l/subtalar_angle_l/value	/jointset/ground_pelvis/pelvis_tilt/speed	/jointset/ground_pelvis/pelvis_tx/speed	/jointset/ground_pelvis/pelvis_ty/speed	/jointset/hip_l/hip_flexion_l/speed	/jointset/hip_l/hip_adduction_l/speed	/jointset/hip_l/hip_rotation_l/speed	/jointset/back/lumbar_extension/speed	/jointset/patellofemoral_l/patellar_flexion_l/speed	/jointset/knee_l/knee_flexion_l/speed	/jointset/knee_l/knee_adduction_l/speed	/jointset/knee_l/knee_rotation_l/speed	/jointset/ankle_l/ankle_angle_l/speed	/jointset/subtalar_l/subtalar_angle_l/speed	/forceset/tau_hip_flexion_l	/forceset/tau_hip_adduction_l	/forceset/tau_hip_rotation_l	/forceset/tau_knee_flexion_l	/forceset/tau_ankle_angle_l	/forceset/tau_subtalar_angle_l	/forceset/tau_lumbar_extension	lambda_cid13_p0	lambda_cid13_p1	lambda_cid13_p2	lambda_cid13_p3	lambda_cid13_p4	lambda_cid13_p5	lambda_cid14_p0	/jointset/ground_pelvis/pelvis_tilt/accel	/jointset/ground_pelvis/pelvis_tx/accel	/jointset/ground_pelvis/pelvis_ty/accel	/jointset/hip_l/hip_flexion_l/accel	/jointset/hip_l/hip_adduction_l/accel	/jointset/hip_l/hip_rotation_l/accel	/jointset/back/lumbar_extension/accel	/jointset/patellofemoral_l/patellar_flexion_l/accel	/jointset/knee_l/knee_flexion_l/accel	/jointset/knee_l/knee_adduction_l/accel	/jointset/knee_l/knee_rotation_l/accel	/jointset/ankle_l/ankle_angle_l/accel	/jointset/subtalar_l/subtalar_angle_l/accel	gamma_cid13_p0	gamma_cid13_p1	gamma_cid13_p2	gamma_cid13_p3	gamma_cid13_p4	gamma_cid13_p5	gamma_cid14_p0
1	-0.3369212933800416	0.03738309015036817	0.6879009761004686	1.31842197559343	-0.3655623059514167	0.08522306055925441	-0.4363320805257146	1.262897830609839	1.262897830609826	-0.004999202179116507	-0.1745265545731038	0.4347992678640214	0.2189851980352947	-0.1261184375640291	0.003689026700553409	0.02688365217885964	0.02803967065966489	0.005144386484822686	-0.06116280416778605	-7.774597274244984e-05	-0.1452763388639735	-0.1452763388639938	0.01001618195651749	-2.965951368117614e-05	-0.05858044873207024	-0.02410153316592909	-0.1792283738800534	0.05043218395383887	-0.003060440568377826	-0.254296324611649	-0.05440363257401724	0.01584058895109755	0.1725065029662358	-46.57845887165623	3.988519026742603	-4.015257927775377	2.696718771392061	-517.7732364263587	-67.69913606497336	-0.02517876648541653	1.315989613850301	0.2710430995167936	1.402228606732007	-5.107116757819495	-0.06093991711546228	-1.429392326083463	-0.01316844078285116	-4.5562080369343	-4.556208036933931	-0.4297100893539431	-0.0190241520293827	-1.143622418243096	-0.7262440622279775	-7.088408262414805e-09	-8.103013399932092e-08	4.685986009759938e-08	4.035151300341183e-09	-8.458936757591202e-09	-7.432008371525399e-08	-9.202757041884626e-09
1.01	-0.3381178259258888	0.03743356913161017	0.6882397264194321	1.318448395856373	-0.3655133869323354	0.08454019501615258	-0.4363310793711185	1.261217493845467	1.261217493845495	-0.004919843576653623	-0.1745267076404506	0.4341563747612308	0.2187088226015994	-0.1132212466486035	0.006415448325228026	0.0408607074139516	-0.02273078738261402	0.004641273652527009	-0.07540988030790072	0.000428427159077528	-0.1908044581074008	-0.1908044581074022	0.005852860023463796	-3.092792105056714e-06	-0.07000299260567168	-0.0311674421723095	-0.1804127106464928	0.05073214546106962	-0.003122257944315641	-0.2527387319116355	-0.05571324243949088	0.01586899246786606	0.1733858265479669	-46.99294408615959	3.980908920883081	-3.936546073901082	2.834776147277428	-517.984274130874	-67.50203447520843	-0.02518911806502395	1.271608081121105	0.2747442877382512	1.394585645479076	-5.05828550731944	-0.04472377949380392	-1.422315872861737	0.1050776881634998	-4.553128015181271	-4.55312801517863	-0.4100581720398653	0.01318161463996207	-1.142299450879028	-0.6958386339600199	-9.312403614411163e-09	-1.001643712948077e-07	5.81742473043765e-08	3.886934840890982e-09	-1.348163608411793e-08	-8.399567670644793e-08	-1.230605470523401e-08
1.02	-0.3391863817124225	0.0375115728478582	0.6887180756234607	1.31796785650295	-0.3654694444042098	0.08371486858867201	-0.4363205029835038	1.259081473059235	1.259081473059281	-0.004882201178872843	-0.1745266581345141	0.4333991104039098	0.2183619732150178	-0.1005230857038863	0.009193973701761431	0.05480342919217746	-0.07335225262041188	0.004149088291938007	-0.08965498104347358	0.001837300210782242	-0.2364131432362125	-0.2364131432361961	0.00167294102006787	1.085514502660407e-05	-0.08145469963769125	-0.03819632374336658	-0.1815970474127252	0.05103210696835032	-0.003184075320158675	-0.2511811392116105	-0.05702285230497971	0.01589739598470572	0.1742651501299119	-47.41366666951969	3.973637793599614	-3.857028136252729	2.970729026314	-518.3281209515415	-67.3062524083706	-0.02519822642314829	1.276183619708557	0.2814638498885872	1.395361915358791	-5.077318196923284	-0.05875442277413764	-1.42899724517512	0.1673715431903506	-4.572321214011202	-4.572321214011067	-0.4330295034223916	-0.02154790891828348	-1.149455049926673	-0.7188385751633014	-1.061763692198089e-08	-1.203529182922324e-07	6.836971241346054e-08	1.904633097094042e-09	-1.773707192173461e-08	-9.572716642685055e-08	-1.522534308632785e-08
1.03	-0.3401289238699655	0.03761767323052962	0.689335610761052	1.316981900602515	-0.3654303550415738	0.08274721186980255	-0.4362912482649787	1.25648911498225	1.25648911498145	-0.004886464229850417	-0.1745264865854881	0.432527273638137	0.2179451134218384	-0.08801787155790217	0.01203996046037531	0.0686907196019193	-0.1238067177579519	0.003671503765080352	-0.1038696686635333	0.004174736184201222	-0.2820569075448061	-0.2820569075447801	-0.002527243547799774	2.296100641501271e-05	-0.09290867007016435	-0.0451610442641506	-0.1825979702806946	0.0513043215626358	-0.003246037914327957	-0.2494696338954938	-0.05814273598394538	0.01593987805980765	0.1750368829618428	-47.75088411719755	3.942275714558177	-3.769836524360328	3.017068307200028	-518.3857110139299	-67.10713467513614	-0.02520950506216171	1.232811648400209	0.2882447016934101	1.383476372520056	-5.024679422911393	-0.04185861695262035	-1.416721056408516	0.291093526430743	-4.560165700707712	-4.560165700706388	-0.4137860800539486	0.01252304934894152	-1.142778710892007	-0.6830872211489525	-1.191349510664829e-08	-1.405522235519218e-07	7.855375995011911e-08	-9.63838026656313e-11	-2.198467854007668e-08	-1.074796346853063e-07	-1.814275382168438e-08
1.04	-0.3409473896187746	0.03775264920335633	0.6900916315564859	1.315492366300469	-0.365395961154079	0.08163760496753507	-0.4362337864062873	1.253440366929894	1.253440366928297	-0.004932783755807853	-0.1745262073347069	0.4315410150338432	0.2174590467373295	-0.0757078039576675	0.0149690917328219	0.08250056076102184	-0.1740679329252211	0.0032099932657808	-0.1180450177230873	0.00747872823811374	-0.3276911383103812	-0.3276911383103457	-0.006738353979060806	3.239549506551703e-05	-0.1043390673420148	-0.05203770200945353	-0.1835988931493771	0.05157653615687996	-0.003308000508405361	-0.2477581285794064	-0.05926261966283258	0.01598236013488528	0.1758086157930732	-48.09442693055289	3.91124736391433	-3.68181439778167	3.060772045610167	-518.5770487286462	-66.91001572486397	-0.02564684935393665	1.237154310558603	0.2980927526551542	1.379872065230937	-5.038668202869084	-0.05553961726252771	-1.421129533074005	0.3606827592886786	-4.570414505407505	-4.570414505407419	-0.4352146761010665	-0.0220821834658662	-1.14474041780212	-0.7012260200670711	-1.244021667334529e-08	-1.606486485084919e-07	8.63263971730481e-08	-3.33192236215062e-09	-2.55525126212609e-08	-1.206820688385704e-07	-2.046858663766474e-08
1.05	-0.3416436037018105	0.0379173045127938	0.6909852895956696	1.313501262868978	-0.3653660927977492	0.08038654392831296	-0.4361387016475332	1.249935471210093	1.249935471209062	-0.005021305789952731	-0.1745258609975269	0.4304405277475317	0.2169046600996559	-0.06355697555303844	0.01797316160665248	0.09621052672036533	-0.2241107452544401	0.002768481389764959	-0.1321547452632146	0.01167749359734771	-0.3732713431825839	-0.3732713431825714	-0.01096556576834038	3.600797220665693e-05	-0.1157580701947541	-0.05882190329731098	-0.1843929919049393	0.05184655322248958	-0.003374566446182515	-0.2457335589091381	-0.06047226134938782	0.01605499612551169	0.1764029776523181	-48.44167803464655	3.852738965726535	-3.572239184450631	3.157475640984756	-518.3963692172945	-66.70031897118841	-0.02752694387560045	1.200752511200262	0.303241468322082	1.363474952382328	-4.98078716142942	-0.0377428146495439	-1.404053842298699	0.4703639363249725	-4.549319529639246	-4.549319529642702	-0.4164263659277481	0.01146156834022026	-1.140442370378474	-0.6643413392774216	-1.294290272073071e-08	-1.807418584555895e-07	9.402367782367306e-08	-6.606039723502018e-09	-2.909910381065894e-08	-1.339298144260473e-07	-2.27759326436646e-08
1.06	-0.3422189684196439	0.03811233599368472	0.6920154305126638	1.311010991431449	-0.3653404967285609	0.07899475371813421	-0.4359974511327717	1.245975274231268	1.245975274230833	-0.005152090329136374	-0.1745255028145622	0.4292258580024167	0.2162829666178782	-0.051537930917013	0.02104432602351191	0.109797136323434	-0.2739015341229368	0.002355535838604199	-0.1461908519160089	0.01671187943992576	-0.4187513901153	-0.41875139011531	-0.01519085498106153	3.476465079186277e-05	-0.1271755591022425	-0.06549907083046028	-0.185187090660908	0.05211657028811977	-0.003441132384302505	-0.2437089892388915	-0.0616819030358853	0.0161276321162111	0.1769973395111622	-48.79523327629023	3.794370565993014	-3.461585537607072	3.250320461214782	-518.3489312885056	-66.49393816059003	-0.03142917014544983	1.210797556837818	0.3115116612609471	1.355200793975982	-4.988263510724607	-0.04982635229150083	-1.406405355607385	0.5278068559572626	-4.550382917510182	-4.55038291751003	-0.4348301607893713	-0.02305334317702162	-1.144437628751904	-0.6798192691254121	-1.397747990057971e-08	-1.989278670636126e-07	9.881250584567909e-08	-8.312413586852162e-09	-3.292261472009538e-08	-1.459812395462772e-07	-2.456586782357412e-08
1.07	-0.3426748321949906	0.03833844677190434	0.6931807665856423	1.308024151872314	-0.3653188920379991	0.07746303873573539	-0.435801759721541	1.241560834991108	1.241560834991118	-0.005325172128670345	-0.1745251938817216	0.4278970362895511	0.2155950517413427	-0.03966264961653551	0.02419223950538418	0.1232438203267294	-0.3234134708573566	0.001971758109569189	-0.1601369619323984	0.02256137067100374	-0.4641136122406971	-0.4641136122407114	-0.01942373860935507	2.78490223426045e-05	-0.1385863540925435	-0.07206078030573004	-0.1856471159167298	0.05232461967037731	-0.003501193909364459	-0.241705093885491	-0.06251312605896085	0.01621191086715217	0.1773581830433851	-49.00572849194739	3.710371312960574	-3.351956285726107	3.230490009429661	-518.0058358154413	-66.31031113151381	-0.03800225441487655	1.171719248797124	0.3185906644196264	1.335456105273184	-4.924723660483909	-0.03170573349942001	-1.386467162689387	0.6337654357318049	-4.525709718162159	-4.525709718162804	-0.41728256876864	0.01062159442288726	-1.139048056397225	-0.6408559799030876	-1.504034916194272e-08	-2.170124287918975e-07	1.034466289406309e-07	-9.935396838606485e-09	-3.67608554018743e-08	-1.579690305991003e-07	-2.632828115103203e-08
1.08	-0.3430127779909042	0.03859646857949688	0.6944797802790053	1.304543779964722	-0.3653009355747776	0.07579231198555991	-0.435543524362181	1.236693459958073	1.236693459958513	-0.005540535785481205	-0.174524927651739	0.4264541771023357	0.2148422179314206	-0.02795433503026637	0.0274265318980969	0.1365326604006205	-0.3726080038191114	0.001625890368938861	-0.1739932054701815	0.02922066906400953	-0.509338548690412	-0.5093385486904317	-0.02364722643441252	2.622407796373849e-05	-0.1499830539719714	-0.07848285750801265	-0.1861071411723667	0.05253266905265645	-0.003561255434445097	-0.2397011985320905	-0.06334434908206048	0.01629618961811501	0.1777190265757924	-49.22254040561821	3.626333446776987	-3.241013603661136	3.206237127362834	-517.7950046232977	-66.13144670569014	-0.0479483233249643	1.177404213996068	0.3287874434290571	1.323632008095121	-4.924782756191635	-0.04224435461053978	-1.388432059886109	0.6897682883426319	-4.522925782373761	-4.52292578237384	-0.4329510001421403	-0.02199520636288204	-1.141618606577266	-0.6518928145279363	-1.555705940699806e-08	-2.340769428345757e-07	1.061210877452106e-07	-1.227072335316768e-08	-3.960313666943066e-08	-1.695900614875148e-07	-2.776770751152106e-08
